<mxfile host="app.diagrams.net" modified="2024-03-20T15:59:59.033Z" agent="Mozilla/5.0 (Windows NT 10.0; Win64; x64) AppleWebKit/537.36 (KHTML, like Gecko) Chrome/122.0.0.0 Safari/537.36" etag="_dYyBAj3S3MVk5c2pIbI" version="24.0.7" type="device" pages="2">
  <diagram name="Page-1" id="dt9xAT1ypbSR5zFL5_mC">
    <mxGraphModel dx="1924" dy="933" grid="1" gridSize="5" guides="1" tooltips="1" connect="1" arrows="1" fold="1" page="1" pageScale="1" pageWidth="827" pageHeight="1169" math="0" shadow="0">
      <root>
        <mxCell id="0" />
        <mxCell id="1" parent="0" />
        <mxCell id="TvJxY72aRet-o59lDKqe-1" value="START" style="rounded=1;whiteSpace=wrap;html=1;" parent="1" vertex="1">
          <mxGeometry x="591" y="10" width="120" height="60" as="geometry" />
        </mxCell>
        <mxCell id="TvJxY72aRet-o59lDKqe-2" value="" style="endArrow=classic;html=1;rounded=0;" parent="1" edge="1">
          <mxGeometry width="50" height="50" relative="1" as="geometry">
            <mxPoint x="656" y="70" as="sourcePoint" />
            <mxPoint x="656" y="110" as="targetPoint" />
          </mxGeometry>
        </mxCell>
        <mxCell id="TvJxY72aRet-o59lDKqe-3" value="CHOOSE&amp;nbsp;&lt;div&gt;SERVICE&amp;nbsp;&lt;/div&gt;" style="shape=parallelogram;perimeter=parallelogramPerimeter;whiteSpace=wrap;html=1;fixedSize=1;" parent="1" vertex="1">
          <mxGeometry x="591" y="110" width="120" height="60" as="geometry" />
        </mxCell>
        <mxCell id="TvJxY72aRet-o59lDKqe-5" value="" style="endArrow=classic;html=1;rounded=0;exitX=0.433;exitY=1.017;exitDx=0;exitDy=0;exitPerimeter=0;" parent="1" source="TvJxY72aRet-o59lDKqe-3" edge="1">
          <mxGeometry width="50" height="50" relative="1" as="geometry">
            <mxPoint x="640" y="180" as="sourcePoint" />
            <mxPoint x="641" y="220" as="targetPoint" />
          </mxGeometry>
        </mxCell>
        <mxCell id="TvJxY72aRet-o59lDKqe-6" value="CHOOSE TEAM MEMBER" style="shape=parallelogram;perimeter=parallelogramPerimeter;whiteSpace=wrap;html=1;fixedSize=1;" parent="1" vertex="1">
          <mxGeometry x="581" y="220" width="120" height="60" as="geometry" />
        </mxCell>
        <mxCell id="TvJxY72aRet-o59lDKqe-7" value="" style="endArrow=classic;html=1;rounded=0;" parent="1" edge="1">
          <mxGeometry width="50" height="50" relative="1" as="geometry">
            <mxPoint x="626" y="280" as="sourcePoint" />
            <mxPoint x="626" y="320" as="targetPoint" />
          </mxGeometry>
        </mxCell>
        <mxCell id="TvJxY72aRet-o59lDKqe-8" value="CHOOSE TIME" style="shape=parallelogram;perimeter=parallelogramPerimeter;whiteSpace=wrap;html=1;fixedSize=1;" parent="1" vertex="1">
          <mxGeometry x="561" y="320" width="120" height="60" as="geometry" />
        </mxCell>
        <mxCell id="TvJxY72aRet-o59lDKqe-9" value="" style="endArrow=classic;html=1;rounded=0;" parent="1" edge="1">
          <mxGeometry width="50" height="50" relative="1" as="geometry">
            <mxPoint x="601" y="380" as="sourcePoint" />
            <mxPoint x="601" y="430" as="targetPoint" />
          </mxGeometry>
        </mxCell>
        <mxCell id="TvJxY72aRet-o59lDKqe-10" value="&lt;font style=&quot;font-size: 10px;&quot;&gt;MEMBERS AVAILABLE AT THIS TIME&lt;/font&gt;" style="rhombus;whiteSpace=wrap;html=1;" parent="1" vertex="1">
          <mxGeometry x="545" y="430" width="120" height="80" as="geometry" />
        </mxCell>
        <mxCell id="TvJxY72aRet-o59lDKqe-17" value="" style="endArrow=classic;html=1;rounded=0;exitX=0;exitY=1;exitDx=0;exitDy=0;" parent="1" edge="1" source="OiUSQrc6Fw_PAk9dsGCw-6">
          <mxGeometry width="50" height="50" relative="1" as="geometry">
            <mxPoint x="481" y="525" as="sourcePoint" />
            <mxPoint x="481" y="555" as="targetPoint" />
            <Array as="points" />
          </mxGeometry>
        </mxCell>
        <mxCell id="TvJxY72aRet-o59lDKqe-18" value="" style="endArrow=none;html=1;rounded=0;entryX=0;entryY=0.5;entryDx=0;entryDy=0;" parent="1" edge="1">
          <mxGeometry width="50" height="50" relative="1" as="geometry">
            <mxPoint x="481" y="470" as="sourcePoint" />
            <mxPoint x="545" y="470" as="targetPoint" />
            <Array as="points" />
          </mxGeometry>
        </mxCell>
        <mxCell id="TvJxY72aRet-o59lDKqe-19" value="" style="endArrow=none;html=1;rounded=0;exitX=1;exitY=0.5;exitDx=0;exitDy=0;" parent="1" source="TvJxY72aRet-o59lDKqe-10" edge="1">
          <mxGeometry width="50" height="50" relative="1" as="geometry">
            <mxPoint x="601" y="670" as="sourcePoint" />
            <mxPoint x="721" y="470" as="targetPoint" />
          </mxGeometry>
        </mxCell>
        <mxCell id="TvJxY72aRet-o59lDKqe-20" value="" style="endArrow=classic;html=1;rounded=0;" parent="1" edge="1">
          <mxGeometry width="50" height="50" relative="1" as="geometry">
            <mxPoint x="721" y="470" as="sourcePoint" />
            <mxPoint x="721" y="510" as="targetPoint" />
            <Array as="points">
              <mxPoint x="721" y="510" />
            </Array>
          </mxGeometry>
        </mxCell>
        <mxCell id="TvJxY72aRet-o59lDKqe-21" value="END" style="rounded=1;whiteSpace=wrap;html=1;" parent="1" vertex="1">
          <mxGeometry x="681" y="510" width="93" height="60" as="geometry" />
        </mxCell>
        <mxCell id="TvJxY72aRet-o59lDKqe-25" value="" style="endArrow=none;html=1;rounded=0;" parent="1" edge="1">
          <mxGeometry width="50" height="50" relative="1" as="geometry">
            <mxPoint x="361" y="575" as="sourcePoint" />
            <mxPoint x="411" y="575" as="targetPoint" />
          </mxGeometry>
        </mxCell>
        <mxCell id="TvJxY72aRet-o59lDKqe-26" value="" style="endArrow=none;html=1;rounded=0;" parent="1" edge="1">
          <mxGeometry width="50" height="50" relative="1" as="geometry">
            <mxPoint x="531" y="575" as="sourcePoint" />
            <mxPoint x="591" y="575" as="targetPoint" />
          </mxGeometry>
        </mxCell>
        <mxCell id="TvJxY72aRet-o59lDKqe-27" value="" style="endArrow=classic;html=1;rounded=0;" parent="1" edge="1">
          <mxGeometry width="50" height="50" relative="1" as="geometry">
            <mxPoint x="589.75" y="575" as="sourcePoint" />
            <mxPoint x="589.75" y="615" as="targetPoint" />
          </mxGeometry>
        </mxCell>
        <mxCell id="TvJxY72aRet-o59lDKqe-29" value="" style="endArrow=classic;html=1;rounded=0;" parent="1" edge="1">
          <mxGeometry width="50" height="50" relative="1" as="geometry">
            <mxPoint x="361" y="575" as="sourcePoint" />
            <mxPoint x="361" y="615" as="targetPoint" />
          </mxGeometry>
        </mxCell>
        <mxCell id="QqDpw4dKdrOEEdkpMUnd-3" style="edgeStyle=none;rounded=0;orthogonalLoop=1;jettySize=auto;html=1;exitX=0.5;exitY=1;exitDx=0;exitDy=0;" edge="1" parent="1" source="TvJxY72aRet-o59lDKqe-30" target="QqDpw4dKdrOEEdkpMUnd-4">
          <mxGeometry relative="1" as="geometry">
            <mxPoint x="596" y="695" as="targetPoint" />
          </mxGeometry>
        </mxCell>
        <mxCell id="TvJxY72aRet-o59lDKqe-30" value="TIME" style="rounded=0;whiteSpace=wrap;html=1;" parent="1" vertex="1">
          <mxGeometry x="551" y="615" width="90" height="50" as="geometry" />
        </mxCell>
        <mxCell id="QqDpw4dKdrOEEdkpMUnd-19" style="edgeStyle=orthogonalEdgeStyle;rounded=0;orthogonalLoop=1;jettySize=auto;html=1;exitX=0.5;exitY=1;exitDx=0;exitDy=0;" edge="1" parent="1" source="TvJxY72aRet-o59lDKqe-31">
          <mxGeometry relative="1" as="geometry">
            <mxPoint x="346" y="695" as="targetPoint" />
          </mxGeometry>
        </mxCell>
        <mxCell id="TvJxY72aRet-o59lDKqe-31" value="TEAM MEMBER" style="rounded=0;whiteSpace=wrap;html=1;" parent="1" vertex="1">
          <mxGeometry x="301" y="615" width="90" height="50" as="geometry" />
        </mxCell>
        <mxCell id="OiUSQrc6Fw_PAk9dsGCw-5" value="YES" style="text;strokeColor=none;align=center;fillColor=none;html=1;verticalAlign=middle;whiteSpace=wrap;rounded=0;" parent="1" vertex="1">
          <mxGeometry x="661" y="440" width="60" height="30" as="geometry" />
        </mxCell>
        <mxCell id="OiUSQrc6Fw_PAk9dsGCw-6" value="NO" style="text;strokeColor=none;align=center;fillColor=none;html=1;verticalAlign=middle;whiteSpace=wrap;rounded=0;" parent="1" vertex="1">
          <mxGeometry x="481" y="440" width="60" height="30" as="geometry" />
        </mxCell>
        <mxCell id="OiUSQrc6Fw_PAk9dsGCw-8" value="CHANAGE" style="shape=parallelogram;perimeter=parallelogramPerimeter;whiteSpace=wrap;html=1;fixedSize=1;" parent="1" vertex="1">
          <mxGeometry x="401" y="555" width="140" height="40" as="geometry" />
        </mxCell>
        <mxCell id="QqDpw4dKdrOEEdkpMUnd-17" style="edgeStyle=orthogonalEdgeStyle;rounded=0;orthogonalLoop=1;jettySize=auto;html=1;" edge="1" parent="1" source="QqDpw4dKdrOEEdkpMUnd-4">
          <mxGeometry relative="1" as="geometry">
            <mxPoint x="531" y="755" as="targetPoint" />
          </mxGeometry>
        </mxCell>
        <mxCell id="QqDpw4dKdrOEEdkpMUnd-30" style="edgeStyle=orthogonalEdgeStyle;curved=1;rounded=0;orthogonalLoop=1;jettySize=auto;html=1;exitX=1;exitY=0.5;exitDx=0;exitDy=0;entryX=0.75;entryY=0;entryDx=0;entryDy=0;" edge="1" parent="1" source="QqDpw4dKdrOEEdkpMUnd-4" target="OiUSQrc6Fw_PAk9dsGCw-8">
          <mxGeometry relative="1" as="geometry" />
        </mxCell>
        <mxCell id="QqDpw4dKdrOEEdkpMUnd-4" value="CHECK TIME" style="rhombus;whiteSpace=wrap;html=1;" vertex="1" parent="1">
          <mxGeometry x="551" y="685" width="90" height="65" as="geometry" />
        </mxCell>
        <mxCell id="QqDpw4dKdrOEEdkpMUnd-7" value="YES" style="text;strokeColor=none;align=center;fillColor=none;html=1;verticalAlign=middle;whiteSpace=wrap;rounded=0;" vertex="1" parent="1">
          <mxGeometry x="501" y="695" width="60" height="30" as="geometry" />
        </mxCell>
        <mxCell id="QqDpw4dKdrOEEdkpMUnd-10" value="END" style="rounded=1;whiteSpace=wrap;html=1;" vertex="1" parent="1">
          <mxGeometry x="488" y="755" width="93" height="60" as="geometry" />
        </mxCell>
        <mxCell id="QqDpw4dKdrOEEdkpMUnd-23" style="edgeStyle=orthogonalEdgeStyle;rounded=0;orthogonalLoop=1;jettySize=auto;html=1;" edge="1" parent="1" source="QqDpw4dKdrOEEdkpMUnd-20">
          <mxGeometry relative="1" as="geometry">
            <mxPoint x="401" y="765" as="targetPoint" />
          </mxGeometry>
        </mxCell>
        <mxCell id="QqDpw4dKdrOEEdkpMUnd-31" style="edgeStyle=orthogonalEdgeStyle;curved=1;rounded=0;orthogonalLoop=1;jettySize=auto;html=1;" edge="1" parent="1" source="QqDpw4dKdrOEEdkpMUnd-20" target="OiUSQrc6Fw_PAk9dsGCw-8">
          <mxGeometry relative="1" as="geometry">
            <mxPoint x="161" y="360" as="targetPoint" />
            <Array as="points">
              <mxPoint x="271" y="735" />
              <mxPoint x="271" y="500" />
              <mxPoint x="471" y="500" />
            </Array>
          </mxGeometry>
        </mxCell>
        <mxCell id="QqDpw4dKdrOEEdkpMUnd-35" style="edgeStyle=orthogonalEdgeStyle;curved=1;rounded=0;orthogonalLoop=1;jettySize=auto;html=1;exitX=0;exitY=0.5;exitDx=0;exitDy=0;" edge="1" parent="1" source="QqDpw4dKdrOEEdkpMUnd-20">
          <mxGeometry relative="1" as="geometry">
            <mxPoint x="310.82352941176464" y="735.4117647058824" as="targetPoint" />
          </mxGeometry>
        </mxCell>
        <mxCell id="QqDpw4dKdrOEEdkpMUnd-20" value="CHECK TEAM MEMBER" style="rhombus;whiteSpace=wrap;html=1;" vertex="1" parent="1">
          <mxGeometry x="311" y="695" width="70" height="80" as="geometry" />
        </mxCell>
        <mxCell id="QqDpw4dKdrOEEdkpMUnd-24" value="YES" style="text;strokeColor=none;align=center;fillColor=none;html=1;verticalAlign=middle;whiteSpace=wrap;rounded=0;" vertex="1" parent="1">
          <mxGeometry x="361" y="710" width="60" height="30" as="geometry" />
        </mxCell>
        <mxCell id="QqDpw4dKdrOEEdkpMUnd-26" value="END" style="rounded=1;whiteSpace=wrap;html=1;" vertex="1" parent="1">
          <mxGeometry x="391" y="765" width="40" height="50" as="geometry" />
        </mxCell>
        <mxCell id="QqDpw4dKdrOEEdkpMUnd-32" value="NO" style="text;strokeColor=none;align=center;fillColor=none;html=1;verticalAlign=middle;whiteSpace=wrap;rounded=0;" vertex="1" parent="1">
          <mxGeometry x="291" y="710" width="30" height="10" as="geometry" />
        </mxCell>
        <mxCell id="QqDpw4dKdrOEEdkpMUnd-34" value="NO" style="text;strokeColor=none;align=center;fillColor=none;html=1;verticalAlign=middle;whiteSpace=wrap;rounded=0;" vertex="1" parent="1">
          <mxGeometry x="626" y="700" width="30" height="10" as="geometry" />
        </mxCell>
      </root>
    </mxGraphModel>
  </diagram>
  <diagram id="DBWWVJZT85h6tmhZ9UIS" name="Page-2">
    <mxGraphModel dx="2933" dy="1447" grid="1" gridSize="10" guides="1" tooltips="1" connect="1" arrows="1" fold="1" page="1" pageScale="1" pageWidth="827" pageHeight="1169" math="0" shadow="0">
      <root>
        <mxCell id="0" />
        <mxCell id="1" parent="0" />
      </root>
    </mxGraphModel>
  </diagram>
</mxfile>
